# xmcd
#
# Track frame offsets:
#	182
#	10982
#	23835
#	39265
#	52465
#	66102
#	84677
#	99240
#	114437
#	129312
#
# Disc length: 1918 seconds
#
# Revision: 5
# Processed by: cddbd v1.5.2PL0 Copyright (c) Steve Scherf et al.
# Submitted via: EZCDAudioConverter 6.0.3.1
#
DISCID=7c077c0a
DTITLE=Tracy Byrd - No Ordinary Man
DYEAR=1994
DGENRE=Country
TTITLE0=The First Step
TTITLE1=Lifestyles of the Not so Rich and Famous
TTITLE2=No Ordinary Man
TTITLE3=Anybody Else's Heart But Mine
TTITLE4=Watermelon Crawl
TTITLE5=The Keeper of the Stars
TTITLE6=You Never Know Just How Good You've Got It
TTITLE7=Redneck Roses
TTITLE8=Right About Now
TTITLE9=Pink Flamingos
EXTD=
EXTT0=
EXTT1=
EXTT2=
EXTT3=
EXTT4=
EXTT5=
EXTT6=
EXTT7=
EXTT8=
EXTT9=
PLAYORDER=
